<svg xmlns="http://www.w3.org/2000/svg" width="681" height="591" viewBox="0 0 681 591">
  <defs>
    <style>
      .\39 641480c-5a2c-460e-a995-dd37bdd954cf {
        fill: #7ab648;
      }

      .\32 a56801f-186f-4a53-abc2-5d28027360b3, .\36 5a0f40f-45a5-47a7-a4bd-3ba6929b73f5, .\39 641480c-5a2c-460e-a995-dd37bdd954cf, .e4a40e79-68b1-4a9e-9218-2adda1755312 {
        stroke: #333;
      }

      .\32 a56801f-186f-4a53-abc2-5d28027360b3 {
        fill: #ffdf71;
      }

      .e4a40e79-68b1-4a9e-9218-2adda1755312 {
        fill: #c92d39;
      }

      .\36 5a0f40f-45a5-47a7-a4bd-3ba6929b73f5 {
        fill: #b2b2b2;
      }
    </style>
  </defs>
  <title>all</title>
  <g id="eb0cef2c-b4b4-45af-847f-bca4c8da57e0" data-name="Слой 2">
    <g id="1b76e104-5f83-4b46-9f3c-300437079bed" data-name="Слой 1">
      <path class="9641480c-5a2c-460e-a995-dd37bdd954cf" d="M0,0Z"/>
      <path class="2a56801f-186f-4a53-abc2-5d28027360b3" d="M0,0Z"/>
      <rect class="2a56801f-186f-4a53-abc2-5d28027360b3" x="206" y="111" width="80" height="80" rx="17" ry="17"/>
      <rect class="2a56801f-186f-4a53-abc2-5d28027360b3" x="392" y="111" width="80" height="80" rx="17" ry="17"/>
      <rect class="2a56801f-186f-4a53-abc2-5d28027360b3" x="485" y="111" width="80" height="80" rx="17" ry="17"/>
      <rect class="2a56801f-186f-4a53-abc2-5d28027360b3" x="578" y="111" width="80" height="80" rx="17" ry="17"/>
      <path class="9641480c-5a2c-460e-a995-dd37bdd954cf" d="M0,0Z"/>
      <rect class="9641480c-5a2c-460e-a995-dd37bdd954cf" x="113" y="210" width="80" height="80" rx="17" ry="17"/>
      <path class="9641480c-5a2c-460e-a995-dd37bdd954cf" d="M0,0Z"/>
      <rect class="9641480c-5a2c-460e-a995-dd37bdd954cf" x="391" y="211" width="80" height="80" rx="17" ry="17"/>
      <rect class="e4a40e79-68b1-4a9e-9218-2adda1755312" x="484" y="211" width="80" height="80" rx="17" ry="17"/>
      <rect class="e4a40e79-68b1-4a9e-9218-2adda1755312" x="577" y="211" width="80" height="80" rx="17" ry="17"/>
      <path class="9641480c-5a2c-460e-a995-dd37bdd954cf" d="M0,0Z"/>
      <rect class="9641480c-5a2c-460e-a995-dd37bdd954cf" x="113" y="310" width="80" height="80" rx="17" ry="17"/>
      <path class="9641480c-5a2c-460e-a995-dd37bdd954cf" d="M0,0Z"/>
      <rect class="9641480c-5a2c-460e-a995-dd37bdd954cf" x="391" y="311" width="80" height="80" rx="17" ry="17"/>
      <rect class="9641480c-5a2c-460e-a995-dd37bdd954cf" x="484" y="311" width="80" height="80" rx="17" ry="17"/>
      <rect class="9641480c-5a2c-460e-a995-dd37bdd954cf" x="577" y="311" width="80" height="80" rx="17" ry="17"/>
      <path class="9641480c-5a2c-460e-a995-dd37bdd954cf" d="M0,0Z"/>
      <rect class="e4a40e79-68b1-4a9e-9218-2adda1755312" x="113" y="410" width="80" height="80" rx="17" ry="17"/>
      <path class="e4a40e79-68b1-4a9e-9218-2adda1755312" d="M0,0Z"/>
      <rect class="9641480c-5a2c-460e-a995-dd37bdd954cf" x="391" y="411" width="80" height="80" rx="17" ry="17"/>
      <rect class="9641480c-5a2c-460e-a995-dd37bdd954cf" x="484" y="411" width="80" height="80" rx="17" ry="17"/>
      <rect class="9641480c-5a2c-460e-a995-dd37bdd954cf" x="577" y="411" width="80" height="80" rx="17" ry="17"/>
      <path class="9641480c-5a2c-460e-a995-dd37bdd954cf" d="M0,0Z"/>
      <rect class="9641480c-5a2c-460e-a995-dd37bdd954cf" x="113" y="510" width="80" height="80" rx="17" ry="17"/>
      <path class="9641480c-5a2c-460e-a995-dd37bdd954cf" d="M0,0Z"/>
      <rect class="9641480c-5a2c-460e-a995-dd37bdd954cf" x="391" y="511" width="80" height="80" rx="17" ry="17"/>
      <rect class="9641480c-5a2c-460e-a995-dd37bdd954cf" x="484" y="511" width="80" height="80" rx="17" ry="17"/>
      <rect class="9641480c-5a2c-460e-a995-dd37bdd954cf" x="577" y="511" width="80" height="80" rx="17" ry="17"/>
      <path class="9641480c-5a2c-460e-a995-dd37bdd954cf" d="M0,0Z"/>
      <path class="65a0f40f-45a5-47a7-a4bd-3ba6929b73f5" d="M0,0Z"/>
    </g>
  </g>
</svg>
