<svg xmlns="http://www.w3.org/2000/svg" width="640" height="481" viewBox="0 0 640 481">
  <defs>
    <style>
      .\34 1286463-63e3-40cf-a7ec-12ff76b9206e {
        fill: #7ab648;
      }

      .\34 1286463-63e3-40cf-a7ec-12ff76b9206e, .d135c4a1-acc7-4053-8437-97755e3aa19a, .fbc414b6-8a24-4d8b-9dd4-5d52211fd10e {
        stroke: #333;
      }

      .fbc414b6-8a24-4d8b-9dd4-5d52211fd10e {
        fill: #ffdf71;
      }

      .d135c4a1-acc7-4053-8437-97755e3aa19a {
        fill: #c92d39;
      }
    </style>
  </defs>
  <title>places</title>
  <g id="b07a710f-d4ac-40ab-a1ec-0efb3129ecd4" data-name="Слой 2">
    <g id="9252759e-e30b-4186-9076-fc480f9fd2af" data-name="Слой 1">
      <path class="41286463-63e3-40cf-a7ec-12ff76b9206e" d="M0,0Z"/>
      <path class="fbc414b6-8a24-4d8b-9dd4-5d52211fd10e" d="M0,0Z"/>
      <rect class="fbc414b6-8a24-4d8b-9dd4-5d52211fd10e" x="187" y="1" width="80" height="80" rx="17" ry="17"/>
      <rect class="fbc414b6-8a24-4d8b-9dd4-5d52211fd10e" x="373" y="1" width="80" height="80" rx="17" ry="17"/>
      <rect class="fbc414b6-8a24-4d8b-9dd4-5d52211fd10e" x="466" y="1" width="80" height="80" rx="17" ry="17"/>
      <rect class="fbc414b6-8a24-4d8b-9dd4-5d52211fd10e" x="559" y="1" width="80" height="80" rx="17" ry="17"/>
      <path class="41286463-63e3-40cf-a7ec-12ff76b9206e" d="M0,0Z"/>
      <rect class="41286463-63e3-40cf-a7ec-12ff76b9206e" x="93" y="100" width="80" height="80" rx="17" ry="17"/>
      <path class="41286463-63e3-40cf-a7ec-12ff76b9206e" d="M0,0Z"/>
      <rect class="41286463-63e3-40cf-a7ec-12ff76b9206e" x="372" y="101" width="80" height="80" rx="17" ry="17"/>
      <rect class="d135c4a1-acc7-4053-8437-97755e3aa19a" x="465" y="101" width="80" height="80" rx="17" ry="17"/>
      <rect class="d135c4a1-acc7-4053-8437-97755e3aa19a" x="558" y="101" width="80" height="80" rx="17" ry="17"/>
      <path class="41286463-63e3-40cf-a7ec-12ff76b9206e" d="M0,0Z"/>
      <rect class="41286463-63e3-40cf-a7ec-12ff76b9206e" x="93" y="200" width="80" height="80" rx="17" ry="17"/>
      <path class="41286463-63e3-40cf-a7ec-12ff76b9206e" d="M0,0Z"/>
      <rect class="41286463-63e3-40cf-a7ec-12ff76b9206e" x="372" y="201" width="80" height="80" rx="17" ry="17"/>
      <rect class="41286463-63e3-40cf-a7ec-12ff76b9206e" x="465" y="201" width="80" height="80" rx="17" ry="17"/>
      <rect class="41286463-63e3-40cf-a7ec-12ff76b9206e" x="558" y="201" width="80" height="80" rx="17" ry="17"/>
      <path class="41286463-63e3-40cf-a7ec-12ff76b9206e" d="M0,0Z"/>
      <rect class="d135c4a1-acc7-4053-8437-97755e3aa19a" x="93" y="300" width="80" height="80" rx="17" ry="17"/>
      <path class="d135c4a1-acc7-4053-8437-97755e3aa19a" d="M0,0Z"/>
      <rect class="41286463-63e3-40cf-a7ec-12ff76b9206e" x="372" y="301" width="80" height="80" rx="17" ry="17"/>
      <rect class="41286463-63e3-40cf-a7ec-12ff76b9206e" x="465" y="301" width="80" height="80" rx="17" ry="17"/>
      <rect class="41286463-63e3-40cf-a7ec-12ff76b9206e" x="558" y="301" width="80" height="80" rx="17" ry="17"/>
      <path class="41286463-63e3-40cf-a7ec-12ff76b9206e" d="M0,0Z"/>
      <rect class="41286463-63e3-40cf-a7ec-12ff76b9206e" x="93" y="400" width="80" height="80" rx="17" ry="17"/>
      <path class="41286463-63e3-40cf-a7ec-12ff76b9206e" d="M0,0Z"/>
      <rect class="41286463-63e3-40cf-a7ec-12ff76b9206e" x="372" y="401" width="80" height="80" rx="17" ry="17"/>
      <rect class="41286463-63e3-40cf-a7ec-12ff76b9206e" x="465" y="401" width="80" height="80" rx="17" ry="17"/>
      <rect class="41286463-63e3-40cf-a7ec-12ff76b9206e" x="558" y="401" width="80" height="80" rx="17" ry="17"/>
      <path class="41286463-63e3-40cf-a7ec-12ff76b9206e" d="M0,0Z"/>
    </g>
  </g>
</svg>
