<svg xmlns="http://www.w3.org/2000/svg" width="681" height="591" viewBox="0 0 681 591">
  <defs>
    <style>
      .\39 5012d87-42f6-43f7-8d5c-31ed5f3fc30c {
        fill: #7ab648;
      }

      .\31 2fc496e-cbba-405d-a355-26498fbc0cb5, .\32 c60e8b1-3356-4f6e-99cb-2c0bde5ae4c3, .\36 c1c7719-4d81-46b9-b6a3-e05ddcf88157, .\39 5012d87-42f6-43f7-8d5c-31ed5f3fc30c {
        stroke: #333;
      }

      .\32 c60e8b1-3356-4f6e-99cb-2c0bde5ae4c3 {
        fill: #ffdf71;
      }

      .\36 c1c7719-4d81-46b9-b6a3-e05ddcf88157 {
        fill: #c92d39;
      }

      .\31 2fc496e-cbba-405d-a355-26498fbc0cb5 {
        fill: #b2b2b2;
      }
    </style>
  </defs>
  <title>all</title>
  <g id="b9cf4c9c-c9a6-48af-b228-834648a06de1" data-name="Слой 2">
    <g id="3a2a64a7-6908-4c4e-adcb-7e8d73c8a4fa" data-name="Слой 1">
      <path class="95012d87-42f6-43f7-8d5c-31ed5f3fc30c" d="M20.5,127.5a17,17,0,0,1,17-17h46a17,17,0,0,1,17,17v46a17,17,0,0,1-17,17h-46a17,17,0,0,1-17-17Z"/>
      <path class="2c60e8b1-3356-4f6e-99cb-2c0bde5ae4c3" d="M113.47,127.5a17,17,0,0,1,17-17h46a17,17,0,0,1,17,17v46a17,17,0,0,1-17,17h-46a17,17,0,0,1-17-17Z"/>
      <rect class="2c60e8b1-3356-4f6e-99cb-2c0bde5ae4c3" x="206.45" y="110.5" width="80" height="80" rx="17" ry="17"/>
      <rect class="2c60e8b1-3356-4f6e-99cb-2c0bde5ae4c3" x="392.41" y="110.5" width="80" height="80" rx="17" ry="17"/>
      <rect class="2c60e8b1-3356-4f6e-99cb-2c0bde5ae4c3" x="485.39" y="110.5" width="80" height="80" rx="17" ry="17"/>
      <rect class="2c60e8b1-3356-4f6e-99cb-2c0bde5ae4c3" x="578.37" y="110.5" width="80" height="80" rx="17" ry="17"/>
      <path class="95012d87-42f6-43f7-8d5c-31ed5f3fc30c" d="M19.55,227.5a17,17,0,0,1,17-17h46a17,17,0,0,1,17,17v46a17,17,0,0,1-17,17h-46a17,17,0,0,1-17-17Z"/>
      <rect class="95012d87-42f6-43f7-8d5c-31ed5f3fc30c" x="112.52" y="210.5" width="80" height="80" rx="17" ry="17"/>
      <path class="95012d87-42f6-43f7-8d5c-31ed5f3fc30c" d="M205.5,227.5a17,17,0,0,1,17-17h46a17,17,0,0,1,17,17v46a17,17,0,0,1-17,17h-46a17,17,0,0,1-17-17Z"/>
      <rect class="95012d87-42f6-43f7-8d5c-31ed5f3fc30c" x="391.45" y="210.5" width="80" height="80" rx="17" ry="17"/>
      <rect class="6c1c7719-4d81-46b9-b6a3-e05ddcf88157" x="484.43" y="210.5" width="80" height="80" rx="17" ry="17"/>
      <rect class="6c1c7719-4d81-46b9-b6a3-e05ddcf88157" x="577.41" y="210.5" width="80" height="80" rx="17" ry="17"/>
      <path class="95012d87-42f6-43f7-8d5c-31ed5f3fc30c" d="M19.55,327.5a17,17,0,0,1,17-17h46a17,17,0,0,1,17,17v46a17,17,0,0,1-17,17h-46a17,17,0,0,1-17-17Z"/>
      <rect class="95012d87-42f6-43f7-8d5c-31ed5f3fc30c" x="112.52" y="310.5" width="80" height="80" rx="17" ry="17"/>
      <path class="95012d87-42f6-43f7-8d5c-31ed5f3fc30c" d="M205.5,327.5a17,17,0,0,1,17-17h46a17,17,0,0,1,17,17v46a17,17,0,0,1-17,17h-46a17,17,0,0,1-17-17Z"/>
      <rect class="95012d87-42f6-43f7-8d5c-31ed5f3fc30c" x="391.45" y="310.5" width="80" height="80" rx="17" ry="17"/>
      <rect class="95012d87-42f6-43f7-8d5c-31ed5f3fc30c" x="484.43" y="310.5" width="80" height="80" rx="17" ry="17"/>
      <rect class="95012d87-42f6-43f7-8d5c-31ed5f3fc30c" x="577.41" y="310.5" width="80" height="80" rx="17" ry="17"/>
      <path class="95012d87-42f6-43f7-8d5c-31ed5f3fc30c" d="M19.55,427.5a17,17,0,0,1,17-17h46a17,17,0,0,1,17,17v46a17,17,0,0,1-17,17h-46a17,17,0,0,1-17-17Z"/>
      <rect class="6c1c7719-4d81-46b9-b6a3-e05ddcf88157" x="112.52" y="410.5" width="80" height="80" rx="17" ry="17"/>
      <path class="6c1c7719-4d81-46b9-b6a3-e05ddcf88157" d="M205.5,427.5a17,17,0,0,1,17-17h46a17,17,0,0,1,17,17v46a17,17,0,0,1-17,17h-46a17,17,0,0,1-17-17Z"/>
      <rect class="95012d87-42f6-43f7-8d5c-31ed5f3fc30c" x="391.45" y="410.5" width="80" height="80" rx="17" ry="17"/>
      <rect class="95012d87-42f6-43f7-8d5c-31ed5f3fc30c" x="484.43" y="410.5" width="80" height="80" rx="17" ry="17"/>
      <rect class="95012d87-42f6-43f7-8d5c-31ed5f3fc30c" x="577.41" y="410.5" width="80" height="80" rx="17" ry="17"/>
      <path class="95012d87-42f6-43f7-8d5c-31ed5f3fc30c" d="M19.55,527.5a17,17,0,0,1,17-17h46a17,17,0,0,1,17,17v46a17,17,0,0,1-17,17h-46a17,17,0,0,1-17-17Z"/>
      <rect class="95012d87-42f6-43f7-8d5c-31ed5f3fc30c" x="112.52" y="510.5" width="80" height="80" rx="17" ry="17"/>
      <path class="95012d87-42f6-43f7-8d5c-31ed5f3fc30c" d="M205.5,527.5a17,17,0,0,1,17-17h46a17,17,0,0,1,17,17v46a17,17,0,0,1-17,17h-46a17,17,0,0,1-17-17Z"/>
      <rect class="95012d87-42f6-43f7-8d5c-31ed5f3fc30c" x="391.45" y="510.5" width="80" height="80" rx="17" ry="17"/>
      <rect class="95012d87-42f6-43f7-8d5c-31ed5f3fc30c" x="484.43" y="510.5" width="80" height="80" rx="17" ry="17"/>
      <rect class="95012d87-42f6-43f7-8d5c-31ed5f3fc30c" x="577.41" y="510.5" width="80" height="80" rx="17" ry="17"/>
      <path class="95012d87-42f6-43f7-8d5c-31ed5f3fc30c" d="M300.5,527.5a17,17,0,0,1,17-17h46a17,17,0,0,1,17,17v46a17,17,0,0,1-17,17h-46a17,17,0,0,1-17-17Z"/>
      <path class="12fc496e-cbba-405d-a355-26498fbc0cb5" d="M680.5,35.5a13.47,13.47,0,0,0-9.7-12.43L596,4.37A157.24,157.24,0,0,0,564.5.5h-448A130.63,130.63,0,0,0,85.17,5.1L10.07,27.63A14.22,14.22,0,0,0,.5,40.5c0,5.52,4.28,8.7,9.57,7.13L85.17,25.1a130.7,130.7,0,0,1,31.33-4.6h448A156.44,156.44,0,0,1,596,24.38l74.77,18.7c5.36,1.33,9.7-2.06,9.7-7.58Z"/>
    </g>
  </g>
</svg>
